<?xml version="1.0" encoding="utf-8"?>
<!-- Generator: Adobe Illustrator 19.2.1, SVG Export Plug-In . SVG Version: 6.00 Build 0)  -->
<svg version="1.1" id="Layer_1" xmlns="http://www.w3.org/2000/svg" xmlns:xlink="http://www.w3.org/1999/xlink" x="0px" y="0px"
	 viewBox="0 0 547 222" style="enable-background:new 0 0 547 222;" xml:space="preserve">
<style type="text/css">
	.st0{enable-background:new    ;}
	.st1{fill:#B51F3A;}
</style>
<g class="st0">
	<path class="st1" d="M35.8,42.9c-3.4,2.1-9.2,3.2-14.5,3.2c-14.5,0-20.4-8.4-20.4-21.9C0.8,11.8,8,2.5,22.4,2.5
		c4.8,0,10,1.2,13.2,3.3v11.4l-6.4-0.5L28.3,11c-0.1-0.6-0.3-0.9-0.9-1c-1.3-0.4-3.3-0.7-5.2-0.7c-7.4,0-12.1,5-12.1,14.9
		c0,10.3,4.5,15.3,11.7,15.3c1.9,0,4.3-0.3,5.8-0.8c0.7-0.2,0.9-0.3,1-1.2l0.9-5.4h6.2V42.9z"/>
	<path class="st1" d="M39.6,24.4c0-12.4,7-21.9,20.8-21.9c13.8,0,19.7,9.5,19.7,21.2c0,13.7-6.7,22.4-20.5,22.4
		C45.5,46.1,39.6,37.1,39.6,24.4z M70.9,24.2c0-10.1-4-14.4-10.6-14.4c-6.7,0-11.4,4.4-11.4,14.4c0,10.5,4.4,14.7,11,14.7
		C66.5,38.9,70.9,34.9,70.9,24.2z"/>
	<path class="st1" d="M116.7,45.4v-4.5l4.8-0.4c0.8-0.1,0.9-0.3,0.9-1.2V17.2h-0.2L113.8,37h-9.5l-8.2-19.9h-0.3v22.1
		c0,0.9,0.1,1,0.9,1.2l5,0.5v4.5H84.1v-4.5l3.7-0.4c0.8-0.1,0.9-0.3,0.9-1.2V9.4c0-0.9-0.1-1-0.9-1.2l-3.7-0.4V3.3h15.6l10.1,26.3
		h0.2l10.6-26.3h15.1v4.5l-3.9,0.5c-0.9,0.1-0.9,0.2-0.9,1.1v29.9c0,0.8,0.2,1,0.9,1.1l3.9,0.5v4.5H116.7z"/>
	<path class="st1" d="M172.6,45.4v-4.5l4.8-0.4c0.8-0.1,0.9-0.3,0.9-1.2V17.2h-0.2L169.8,37h-9.5l-8.2-19.9h-0.3v22.1
		c0,0.9,0.1,1,0.9,1.2l5,0.5v4.5h-17.7v-4.5l3.7-0.4c0.8-0.1,0.9-0.3,0.9-1.2V9.4c0-0.9-0.1-1-0.9-1.2l-3.7-0.4V3.3h15.6l10.1,26.3
		h0.2l10.6-26.3h15.1v4.5l-3.9,0.5c-0.9,0.1-0.9,0.2-0.9,1.1v29.9c0,0.8,0.2,1,0.9,1.1l3.9,0.5v4.5H172.6z"/>
	<path class="st1" d="M225.4,9.4c0-0.9-0.1-1.1-0.9-1.2l-3.7-0.4V3.3H238v4.6l-3.9,0.5c-0.9,0.1-0.9,0.2-0.9,1.1v20.9
		c0,11-6.3,15.8-16.6,15.8c-11.6,0-16.5-5.1-16.5-16V9.4c0-0.9-0.1-1.1-0.9-1.2l-3.6-0.4V3.3h18.4v4.6L210,8.3
		c-0.9,0.1-0.9,0.2-0.9,1.1v19c0,6.7,1.5,10.3,7.9,10.3c6.2,0,8.4-2.7,8.4-10.1V9.4z"/>
	<path class="st1" d="M271.5,45.4L253,15v24.2c0,0.9,0.1,1,0.9,1.2l3.9,0.5v4.5h-16.2v-4.5l3.7-0.4c0.8-0.1,0.9-0.3,0.9-1.2V9.4
		c0-0.9-0.1-1.1-0.9-1.2l-3.7-0.4V3.3h14.4l18.3,30.4V9.5c0-0.9-0.1-1.1-0.9-1.2l-3.7-0.4V3.3h16.2v4.7L282,8.4
		c-0.9,0.1-0.9,0.2-0.9,1.1v35.9H271.5z"/>
	<path class="st1" d="M289.6,45.4v-4.5l4.2-0.4c0.8-0.1,0.9-0.3,0.9-1.2V9.5c0-0.9-0.1-1.1-0.9-1.2l-4.2-0.4V3.3h19.5v4.7l-4.5,0.5
		c-0.9,0.1-0.9,0.2-0.9,1.1v29.7c0,0.9,0.1,1,0.9,1.2l4.5,0.5v4.5H289.6z"/>
	<path class="st1" d="M347.8,42.9c-3.4,2.1-9.2,3.2-14.5,3.2c-14.5,0-20.4-8.4-20.4-21.9c0-12.4,7.2-21.6,21.6-21.6
		c4.8,0,10,1.2,13.2,3.3v11.4l-6.4-0.5l-0.9-5.7c-0.1-0.6-0.3-0.9-0.9-1c-1.3-0.4-3.3-0.7-5.2-0.7c-7.4,0-12.1,5-12.1,14.9
		c0,10.3,4.5,15.3,11.7,15.3c1.9,0,4.3-0.3,5.8-0.8c0.7-0.2,0.9-0.3,1-1.2l0.9-5.4h6.2V42.9z"/>
	<path class="st1" d="M376,45.4v-4.5l4.8-0.5l-2.1-6h-14.4l-2,6l4.6,0.5v4.5h-16.2v-4.5l2.6-0.6c0.7-0.2,1.2-0.4,1.5-1.1l12.7-35.8
		h10.3l12.7,35.9c0.2,0.7,0.7,0.8,1.4,1l2.7,0.6v4.5H376z M371.7,12.2h-0.3L366,28h10.9L371.7,12.2z"/>
	<path class="st1" d="M398.3,45.4v-4.6l6-0.4c0.8-0.1,0.9-0.3,0.9-1.2V9.6h-6c-0.6,0-0.8,0.1-0.9,0.6l-0.9,4.8l-6.4,0.3v-12h37.4v12
		l-6.3-0.3l-0.9-4.8c-0.1-0.6-0.3-0.6-0.9-0.6h-6v29.6c0,0.8,0.1,1,0.9,1.1l6.4,0.5v4.6H398.3z"/>
	<path class="st1" d="M432,45.4v-4.5l4.2-0.4c0.8-0.1,0.9-0.3,0.9-1.2V9.5c0-0.9-0.1-1.1-0.9-1.2L432,7.9V3.3h19.5v4.7L447,8.4
		c-0.9,0.1-0.9,0.2-0.9,1.1v29.7c0,0.9,0.1,1,0.9,1.2l4.5,0.5v4.5H432z"/>
	<path class="st1" d="M455.2,24.4c0-12.4,7-21.9,20.8-21.9c13.8,0,19.7,9.5,19.7,21.2c0,13.7-6.7,22.4-20.5,22.4
		C461.1,46.1,455.2,37.1,455.2,24.4z M486.5,24.2c0-10.1-4-14.4-10.6-14.4c-6.7,0-11.4,4.4-11.4,14.4c0,10.5,4.4,14.7,11,14.7
		C482.1,38.9,486.5,34.9,486.5,24.2z"/>
	<path class="st1" d="M529.6,45.4L511.1,15v24.2c0,0.9,0.1,1,0.9,1.2l3.9,0.5v4.5h-16.2v-4.5l3.7-0.4c0.8-0.1,0.9-0.3,0.9-1.2V9.4
		c0-0.9-0.1-1.1-0.9-1.2l-3.7-0.4V3.3h14.4l18.3,30.4V9.5c0-0.9-0.1-1.1-0.9-1.2l-3.7-0.4V3.3H544v4.7l-3.9,0.5
		c-0.9,0.1-0.9,0.2-0.9,1.1v35.9H529.6z"/>
</g>
<g class="st0">
	<path d="M60.8,138v-8.2l8.6-0.7c1.5-0.2,1.7-0.6,1.7-2.1V87h-0.4l-15,35.8H38.5L23.7,86.9h-0.5v39.9c0,1.7,0.1,1.9,1.7,2.1l9,0.8
		v8.2H2v-8.2l6.6-0.7c1.5-0.2,1.7-0.5,1.7-2.1V73.1c0-1.6-0.2-1.9-1.7-2.1L2,70.2v-8.3h28.1l18.3,47.6h0.4L68,61.9h27.3v8.2l-7,0.8
		c-1.6,0.2-1.7,0.4-1.7,2v54c0,1.4,0.3,1.8,1.7,2l7,0.8v8.2H60.8z"/>
	<path d="M145.2,138v-8.2l8.6-0.9l-3.8-10.9h-26l-3.7,10.9l8.3,0.9v8.2H99.3v-8.2l4.6-1.2c1.3-0.3,2.2-0.7,2.6-2l23-64.7h18.6
		l22.9,64.9c0.4,1.3,1.3,1.5,2.5,1.8l4.8,1.2v8.2H145.2z M137.5,78h-0.6l-9.7,28.6h19.6L137.5,78z"/>
	<path d="M182.7,138v-8.3l6.6-0.7c1.5-0.2,1.7-0.5,1.7-2.1V73.1c0-1.6-0.2-2-1.7-2.1l-6.6-0.7v-8.3h35v8.3l-8.7,0.8
		c-1.6,0.1-1.7,0.5-1.7,2v53.7H226c1.2,0,1.5-0.1,1.7-1.2l1.7-10.5h11.5V138H182.7z"/>
	<path d="M290.4,138v-8.2l8.6-0.9l-3.8-10.9h-26l-3.7,10.9l8.3,0.9v8.2h-29.3v-8.2l4.6-1.2c1.3-0.3,2.2-0.7,2.6-2l23-64.7h18.6
		l22.9,64.9c0.4,1.3,1.3,1.5,2.5,1.8l4.8,1.2v8.2H290.4z M282.8,78h-0.6l-9.7,28.6h19.6L282.8,78z"/>
	<path d="M327.9,138v-8.2l6.6-0.7c1.5-0.2,1.7-0.5,1.7-2.1V73.2c0-1.6-0.2-2-1.7-2.1l-6.6-0.7v-8.4h35.4c18,0,23,8.2,23,18.6
		c0,10-6.4,15.5-12.8,17.6v0.3c12,1.4,17.5,8.1,17.5,18.6c0,15.5-12.2,20.9-28.7,20.9H327.9z M356.6,93.9c7.6,0,14.3-1.8,14.3-10.7
		c0-8.6-5.5-9.8-12.7-9.8h-5.8v20.5H356.6z M359.6,126.6c8.8,0,14.6-2.1,14.6-11.2c0-8.7-5.9-11-13-11h-8.8v22.3H359.6z"/>
	<path d="M440.4,138v-8.2l8.6-0.9l-3.8-10.9h-26l-3.7,10.9l8.3,0.9v8.2h-29.3v-8.2l4.6-1.2c1.3-0.3,2.2-0.7,2.6-2l23-64.7h18.6
		l22.9,64.9c0.4,1.3,1.3,1.5,2.5,1.8l4.8,1.2v8.2H440.4z M432.7,78h-0.6l-9.7,28.6H442L432.7,78z"/>
	<path d="M522.9,138l-9.5-26.4c-1.3-3.6-2.6-4.7-6.2-4.7h-4.9v19.7c0,1.7,0.1,1.9,1.7,2.1l7.3,0.8v8.4h-33.5v-8.4l6.6-0.7
		c1.5-0.1,1.7-0.5,1.7-2.1V73.1c0-1.6-0.2-1.9-1.7-2.1l-6.6-0.7v-8.3h35.8c18.9,0,24.5,10.1,24.5,21c0,10.8-5.7,16.6-13.9,20.2
		c3,1.5,4.4,4,6.1,8.4l5.8,15c0.8,1.6,1.6,1.8,3.1,2l6.5,1v8.4H522.9z M507.1,96c7.6,0,14.3-1.8,14.3-12.1c0-8.1-4.5-10.5-13.9-10.5
		h-5.2V96H507.1z"/>
</g>
<g class="st0">
	<path d="M2.6,216.7v-2.3l2.7-0.3c0.6-0.1,0.7-0.2,0.7-0.8v-23.7c0-0.6-0.1-0.8-0.7-0.8l-2.7-0.3v-2.3h12.6
		c10.6,0,15.2,5.7,15.2,14.8c0,9.4-4.9,15.8-15.9,15.8H2.6z M14.5,213.6c8.1,0,11.9-4.6,11.9-12.1c0-9.4-4.2-12.4-11.7-12.4H9.8
		v24.5H14.5z"/>
	<path d="M35,216.7v-2.3l2.7-0.3c0.6-0.1,0.7-0.2,0.7-0.8v-23.7c0-0.6-0.1-0.8-0.7-0.8l-2.7-0.3v-2.3h21.2v7l-2.9-0.2l-0.6-3.3
		c-0.1-0.4-0.3-0.5-0.7-0.5h-9.8v10.7h11.3v3H42.2v10.9H53c0.5,0,0.6,0,0.7-0.5l0.7-3.7h2.8v7.1H35z"/>
	<path d="M77.9,193.9l-0.6-3.6c-0.1-0.6-0.3-0.8-0.5-0.9c-0.6-0.3-1.8-0.7-4-0.7c-4.4,0-6.5,1.9-6.5,4.9c0,3.5,3,4.5,6.4,5.6
		c4.2,1.3,9,2.7,9,9.1c0,6.6-5.2,8.9-11.2,8.9c-3.8,0-7.6-1-8.9-1.6v-6.9h2.8l0.8,3.7c0.1,0.5,0.3,0.7,0.8,0.9
		c0.6,0.2,2.3,0.7,4.7,0.7c4.3,0,6.9-1.6,6.9-5.3c0-3.7-2.9-4.8-6.2-5.8c-4.3-1.3-9.2-2.4-9.2-8.8c0-6,4.7-8.6,10.6-8.6
		c3.6,0,6.4,0.9,7.9,1.5v7.2L77.9,193.9z"/>
	<path d="M86.4,216.7v-2.3l3.1-0.3c0.6,0,0.7-0.2,0.7-0.8v-23.8c0-0.6-0.1-0.8-0.7-0.8l-3.1-0.3v-2.3h11.6v2.3l-3.3,0.3
		c-0.6,0.1-0.7,0.2-0.7,0.8v23.7c0,0.7,0,0.8,0.7,0.8l3.3,0.3v2.3H86.4z"/>
	<path d="M128.7,204.9c-0.5,0-0.7,0.2-0.7,0.7v9.8c-2.6,1.3-6.7,1.7-10.2,1.7c-11.4,0-15.6-6.8-15.6-16c0-9,5-15.6,15.2-15.6
		c3.6,0,7.2,0.8,9.4,2.3v6.7l-2.9-0.2l-0.7-3.9c-0.1-0.4-0.2-0.6-0.6-0.8c-1.4-0.5-3.5-0.9-5.5-0.9c-6.7,0-10.9,4.6-10.9,12.5
		c0,8.3,4.1,12.9,12.1,12.9c1.5,0,3.8-0.3,5.2-0.6c0.4-0.1,0.6-0.2,0.6-0.7v-7.5h-5.8l0.5-2.7h11.6v2.3L128.7,204.9z"/>
	<path d="M156.1,216.7l-15.4-25.6v22.1c0,0.7,0,0.8,0.7,0.8l2.8,0.3v2.3h-10.3v-2.3l2.7-0.3c0.6-0.1,0.7-0.2,0.7-0.8v-23.8
		c0-0.6-0.1-0.8-0.7-0.8l-2.7-0.3V186h8.3l15.1,25.4v-22c0-0.6-0.1-0.8-0.7-0.8l-2.7-0.3v-2.3h10.2v2.3l-2.8,0.3
		c-0.6,0.1-0.7,0.2-0.7,0.8v27.2H156.1z"/>
	<path d="M166.4,221l1.3-4.4c0-0.2,0-0.3-0.2-0.4l-1.5-0.6l0.9-3.5c2.7,0.1,4.6,0.4,4.6,2.7c0,0.8-0.3,1.5-0.7,2.2l-2.5,4.7
		L166.4,221z"/>
	<path d="M184.3,216.7v-2.3l3.1-0.3c0.6,0,0.7-0.2,0.7-0.8v-23.8c0-0.6-0.1-0.8-0.7-0.8l-3.1-0.3v-2.3h11.6v2.3l-3.3,0.3
		c-0.6,0.1-0.7,0.2-0.7,0.8v23.7c0,0.7,0,0.8,0.7,0.8l3.3,0.3v2.3H184.3z"/>
	<path d="M224.4,216.7v-2.3l3.5-0.3c0.6,0,0.7-0.2,0.7-0.8v-21l-8.5,17.2H216l-8.2-17.2v20.9c0,0.7,0,0.8,0.7,0.8l3.7,0.3v2.3h-11.5
		v-2.3l2.7-0.3c0.6-0.1,0.7-0.2,0.7-0.8v-23.7c0-0.6-0.1-0.8-0.7-0.8l-2.7-0.3v-2.3h8.2l9.3,20.1l9.6-20.1h8.1v2.3l-2.8,0.3
		c-0.6,0.1-0.7,0.2-0.7,0.8v23.8c0,0.5,0.1,0.7,0.7,0.8l2.8,0.3v2.3H224.4z"/>
	<path d="M240.9,216.7v-2.3l2.7-0.3c0.6-0.1,0.7-0.2,0.7-0.8v-23.7c0-0.6-0.1-0.8-0.7-0.8l-2.7-0.3v-2.3H254c7.8,0,10.2,4.1,10.2,9
		c0,7.3-4.4,10.1-11.6,10.1h-4.5v8.1c0,0.7,0,0.8,0.7,0.8l6,0.3v2.3H240.9z M252.2,202c4.3,0,7.9-0.9,7.9-6.8c0-4.4-2.5-6.1-7.4-6.1
		h-4.7V202H252.2z"/>
	<path d="M283.3,216.7v-2.3l3.3-0.3l-3.5-8.8c-0.5-1.4-1.2-1.8-2.9-1.8h-4.7v9.6c0,0.7,0,0.8,0.7,0.8l2.8,0.3v2.3h-10.7v-2.3
		l2.7-0.3c0.6-0.1,0.7-0.2,0.7-0.8v-23.7c0-0.6-0.1-0.8-0.7-0.8l-2.7-0.3v-2.3h12.9c7.6,0,9.6,4.2,9.6,8.3c0,4.5-2.5,7-5.9,8.2
		c1.4,0.6,1.7,1.5,2.4,3.1l2.9,7.4c0.3,0.7,0.7,0.9,1.3,1l2.6,0.4v2.2H283.3z M279.5,200.6c4,0,7.4-1.2,7.4-6.1c0-4.3-2.8-5.3-8-5.3
		h-3.3v11.4H279.5z"/>
	<path d="M297,216.7v-2.3l3.1-0.3c0.6,0,0.7-0.2,0.7-0.8v-23.8c0-0.6-0.1-0.8-0.7-0.8l-3.1-0.3v-2.3h11.6v2.3l-3.3,0.3
		c-0.6,0.1-0.7,0.2-0.7,0.8v23.7c0,0.7,0,0.8,0.7,0.8l3.3,0.3v2.3H297z"/>
	<path d="M337.1,216.7v-2.3l3.5-0.3c0.6,0,0.7-0.2,0.7-0.8v-21l-8.5,17.2h-4.1l-8.2-17.2v20.9c0,0.7,0,0.8,0.7,0.8l3.7,0.3v2.3
		h-11.5v-2.3l2.7-0.3c0.6-0.1,0.7-0.2,0.7-0.8v-23.7c0-0.6-0.1-0.8-0.7-0.8l-2.7-0.3v-2.3h8.2l9.3,20.1l9.6-20.1h8.1v2.3l-2.8,0.3
		c-0.6,0.1-0.7,0.2-0.7,0.8v23.8c0,0.5,0.1,0.7,0.7,0.8l2.8,0.3v2.3H337.1z"/>
	<path d="M353.6,216.7v-2.3l2.7-0.3c0.6-0.1,0.7-0.2,0.7-0.8v-23.7c0-0.6-0.1-0.8-0.7-0.8l-2.7-0.3v-2.3h21.2v7l-2.9-0.2l-0.6-3.3
		c-0.1-0.4-0.3-0.5-0.7-0.5h-9.8v10.7h11.3v3h-11.3v10.9h10.7c0.5,0,0.6,0,0.7-0.5l0.7-3.7h2.8v7.1H353.6z M361.5,184.3l-1.2-1.9
		l8-5.5l1.9,3.1L361.5,184.3z"/>
	<path d="M389.8,216.7v-2.3l2.7-0.3c0.6-0.1,0.7-0.2,0.7-0.8v-23.7c0-0.6-0.1-0.8-0.7-0.8l-2.7-0.3v-2.3h21.2v7l-2.9-0.2l-0.6-3.3
		c-0.1-0.4-0.3-0.5-0.7-0.5h-9.8v10.7h11.3v3h-11.3v10.9h10.7c0.5,0,0.6,0,0.7-0.5l0.7-3.7h2.8v7.1H389.8z"/>
	<path d="M420.4,216.7v-2.3l4.4-0.3c0.6,0,0.7-0.2,0.7-0.8v-24.2h-6.6c-0.5,0-0.6,0-0.7,0.5l-0.7,3.7h-2.8v-7.1h25.4v7.1h-2.8
		l-0.7-3.7c-0.1-0.4-0.2-0.5-0.7-0.5h-6.6v24.2c0,0.6,0,0.8,0.7,0.8l4.7,0.3v2.3H420.4z"/>
	<path d="M477.3,216.7l-5.3-19.6l-5.7,19.6h-4.8l-7-27.1c-0.1-0.5-0.3-0.7-0.8-0.8l-2.5-0.4l0.4-2.3h10.6v2.3l-3.8,0.4l5.7,23.7
		l5.8-20.3h4.4l5.8,20.6l6-24.1l-3.8-0.4l0.4-2.3h9.9v2.3l-2.2,0.4c-0.6,0.1-0.8,0.2-0.9,0.8l-6.8,27.1H477.3z"/>
	<path d="M495.3,216.7v-2.3l2.7-0.3c0.6-0.1,0.7-0.2,0.7-0.8v-23.7c0-0.6-0.1-0.8-0.7-0.8l-2.7-0.3v-2.3h21.2v7l-2.9-0.2l-0.6-3.3
		c-0.1-0.4-0.3-0.5-0.7-0.5h-9.8v10.7h11.3v3h-11.3v10.9h10.7c0.5,0,0.6,0,0.7-0.5l0.7-3.7h2.8v7.1H495.3z"/>
	<path d="M522.2,216.7v-2.3l2.7-0.3c0.6-0.1,0.7-0.2,0.7-0.8v-23.7c0-0.6-0.1-0.8-0.7-0.8l-2.7-0.3v-2.3h12.6c7.2,0,9.2,3.3,9.2,7.5
		c0,4-2.6,6.3-5.2,7.1v0.1c4.8,0.6,7.1,3.4,7.1,7.6c0,6.3-4.7,8.3-11.3,8.3H522.2z M533.1,199.6c3.3,0,7-1,7-5.5
		c0-3.9-2.2-4.9-6.4-4.9h-4.4v10.4H533.1z M534.2,213.6c4.4,0,7.7-0.8,7.7-5.5c0-4.1-3-5.6-6.9-5.6h-5.7v11.1H534.2z"/>
</g>
<rect y="152.9" width="547" height="15.8"/>
</svg>
